<?xml version="1.0" encoding="utf-8"?>
<!-- Generator: Adobe Illustrator 22.1.0, SVG Export Plug-In . SVG Version: 6.00 Build 0)  -->
<svg version="1.1" id="Layer_1" xmlns="http://www.w3.org/2000/svg" xmlns:xlink="http://www.w3.org/1999/xlink" x="0px" y="0px"
	 viewBox="0 0 1080 1080" style="enable-background:new 0 0 1080 1080;" xml:space="preserve">
<style type="text/css">
	.st0{fill:#FFFFFF;}
</style>
<path class="st0" d="M62.7,603v354.5l107.7-107.7c0,0,152.4,200.4,424.1,162.3c0,0,361.1-18.2,423.3-423.3V545h-188
	c0,0-1.7,227-235.2,283.3c0,0-198.8,31.5-289.9-116l108.5-108.5L62.7,603z"/>
<path class="st0" d="M1017.8,486.9V132.4L910.1,240.1c0,0-152.4-200.4-424.1-162.3c0,0-361.1,18.2-423.3,423.3v43.9h188
	c0,0,1.7-227,235.2-283.3c0,0,198.8-31.5,289.9,116L667.4,486.1L1017.8,486.9z"/>
</svg>
